<svg xmlns="http://www.w3.org/2000/svg" version="1.1" xmlns:xlink="http://www.w3.org/1999/xlink" xmlns:svgjs="http://svgjs.com/svgjs" width="2500" height="1000" preserveAspectRatio="none" viewBox="0 0 2500 1000"><g mask="url(&quot;#SvgjsMask1332&quot;)" fill="none"><rect width="2500" height="1000" x="0" y="0" fill="rgba(39, 40, 94, 1)"></rect><path d="M981 87L980 464" stroke-width="10" stroke="url(#SvgjsLinearGradient1333)" stroke-linecap="round" class="Up"></path><path d="M1244 756L1243 1194" stroke-width="10" stroke="url(#SvgjsLinearGradient1334)" stroke-linecap="round" class="Up"></path><path d="M2321 618L2320 991" stroke-width="10" stroke="url(#SvgjsLinearGradient1335)" stroke-linecap="round" class="Up"></path><path d="M265 251L264 -86" stroke-width="8" stroke="url(#SvgjsLinearGradient1336)" stroke-linecap="round" class="Down"></path><path d="M522 136L521 501" stroke-width="8" stroke="url(#SvgjsLinearGradient1337)" stroke-linecap="round" class="Down"></path><path d="M67 621L66 981" stroke-width="10" stroke="url(#SvgjsLinearGradient1338)" stroke-linecap="round" class="Down"></path><path d="M2370 456L2369 -207" stroke-width="8" stroke="url(#SvgjsLinearGradient1336)" stroke-linecap="round" class="Down"></path><path d="M2099 258L2098 -66" stroke-width="8" stroke="url(#SvgjsLinearGradient1338)" stroke-linecap="round" class="Down"></path><path d="M568 359L567 801" stroke-width="10" stroke="url(#SvgjsLinearGradient1339)" stroke-linecap="round" class="Up"></path><path d="M250 950L249 1423" stroke-width="10" stroke="url(#SvgjsLinearGradient1339)" stroke-linecap="round" class="Up"></path><path d="M2101 361L2100 -106" stroke-width="8" stroke="url(#SvgjsLinearGradient1335)" stroke-linecap="round" class="Up"></path><path d="M2092 895L2091 1444" stroke-width="10" stroke="url(#SvgjsLinearGradient1334)" stroke-linecap="round" class="Up"></path><path d="M1659 200L1658 798" stroke-width="10" stroke="url(#SvgjsLinearGradient1339)" stroke-linecap="round" class="Up"></path><path d="M2343 894L2342 248" stroke-width="10" stroke="url(#SvgjsLinearGradient1336)" stroke-linecap="round" class="Down"></path><path d="M2232 309L2231 -247" stroke-width="10" stroke="url(#SvgjsLinearGradient1337)" stroke-linecap="round" class="Down"></path><path d="M1002 876L1001 620" stroke-width="10" stroke="url(#SvgjsLinearGradient1335)" stroke-linecap="round" class="Up"></path><path d="M1244 919L1243 1615" stroke-width="6" stroke="url(#SvgjsLinearGradient1334)" stroke-linecap="round" class="Up"></path><path d="M312 249L311 -296" stroke-width="8" stroke="url(#SvgjsLinearGradient1340)" stroke-linecap="round" class="Down"></path><path d="M1307 321L1306 -294" stroke-width="10" stroke="url(#SvgjsLinearGradient1335)" stroke-linecap="round" class="Up"></path><path d="M1079 592L1078 1018" stroke-width="10" stroke="url(#SvgjsLinearGradient1337)" stroke-linecap="round" class="Down"></path><path d="M1600 802L1599 1079" stroke-width="8" stroke="url(#SvgjsLinearGradient1335)" stroke-linecap="round" class="Up"></path><path d="M2322 456L2321 -31" stroke-width="6" stroke="url(#SvgjsLinearGradient1334)" stroke-linecap="round" class="Up"></path><path d="M1986 682L1985 152" stroke-width="8" stroke="url(#SvgjsLinearGradient1335)" stroke-linecap="round" class="Up"></path><path d="M2176 962L2175 1365" stroke-width="10" stroke="url(#SvgjsLinearGradient1333)" stroke-linecap="round" class="Up"></path><path d="M1227 805L1226 459" stroke-width="6" stroke="url(#SvgjsLinearGradient1339)" stroke-linecap="round" class="Up"></path><path d="M1621 187L1620 549" stroke-width="8" stroke="url(#SvgjsLinearGradient1333)" stroke-linecap="round" class="Up"></path><path d="M65 131L64 421" stroke-width="6" stroke="url(#SvgjsLinearGradient1335)" stroke-linecap="round" class="Up"></path><path d="M2211 781L2210 308" stroke-width="10" stroke="url(#SvgjsLinearGradient1339)" stroke-linecap="round" class="Up"></path><path d="M1447 635L1446 951" stroke-width="6" stroke="url(#SvgjsLinearGradient1340)" stroke-linecap="round" class="Down"></path><path d="M1034 482L1033 192" stroke-width="8" stroke="url(#SvgjsLinearGradient1339)" stroke-linecap="round" class="Up"></path><path d="M231 894L230 1490" stroke-width="10" stroke="url(#SvgjsLinearGradient1339)" stroke-linecap="round" class="Up"></path><path d="M1705 89L1704 515" stroke-width="10" stroke="url(#SvgjsLinearGradient1340)" stroke-linecap="round" class="Down"></path><path d="M1910 327L1909 696" stroke-width="10" stroke="url(#SvgjsLinearGradient1335)" stroke-linecap="round" class="Up"></path><path d="M152 908L151 1278" stroke-width="8" stroke="url(#SvgjsLinearGradient1333)" stroke-linecap="round" class="Up"></path><path d="M997 970L996 305" stroke-width="10" stroke="url(#SvgjsLinearGradient1334)" stroke-linecap="round" class="Up"></path><path d="M1577 244L1576 -255" stroke-width="6" stroke="url(#SvgjsLinearGradient1333)" stroke-linecap="round" class="Up"></path><path d="M2224 627L2223 187" stroke-width="6" stroke="url(#SvgjsLinearGradient1333)" stroke-linecap="round" class="Up"></path><path d="M2322 520L2321 916" stroke-width="8" stroke="url(#SvgjsLinearGradient1337)" stroke-linecap="round" class="Down"></path><path d="M2236 515L2235 1206" stroke-width="8" stroke="url(#SvgjsLinearGradient1340)" stroke-linecap="round" class="Down"></path><path d="M2466 605L2465 1178" stroke-width="6" stroke="url(#SvgjsLinearGradient1335)" stroke-linecap="round" class="Up"></path><path d="M714 886L713 362" stroke-width="10" stroke="url(#SvgjsLinearGradient1340)" stroke-linecap="round" class="Down"></path><path d="M368 550L367 1155" stroke-width="10" stroke="url(#SvgjsLinearGradient1338)" stroke-linecap="round" class="Down"></path><path d="M201 524L200 -206" stroke-width="8" stroke="url(#SvgjsLinearGradient1340)" stroke-linecap="round" class="Down"></path><path d="M475 614L474 1263" stroke-width="8" stroke="url(#SvgjsLinearGradient1335)" stroke-linecap="round" class="Up"></path><path d="M29 573L28 -122" stroke-width="8" stroke="url(#SvgjsLinearGradient1335)" stroke-linecap="round" class="Up"></path><path d="M371 22L370 432" stroke-width="6" stroke="url(#SvgjsLinearGradient1334)" stroke-linecap="round" class="Up"></path><path d="M793 669L792 135" stroke-width="6" stroke="url(#SvgjsLinearGradient1335)" stroke-linecap="round" class="Up"></path><path d="M1918 911L1917 1245" stroke-width="8" stroke="url(#SvgjsLinearGradient1335)" stroke-linecap="round" class="Up"></path><path d="M1210 938L1209 580" stroke-width="8" stroke="url(#SvgjsLinearGradient1336)" stroke-linecap="round" class="Down"></path><path d="M2360 637L2359 1367" stroke-width="8" stroke="url(#SvgjsLinearGradient1336)" stroke-linecap="round" class="Down"></path><path d="M780 246L779 -398" stroke-width="10" stroke="url(#SvgjsLinearGradient1337)" stroke-linecap="round" class="Down"></path><path d="M539 854L538 1475" stroke-width="8" stroke="url(#SvgjsLinearGradient1333)" stroke-linecap="round" class="Up"></path><path d="M1365 27L1364 602" stroke-width="6" stroke="url(#SvgjsLinearGradient1334)" stroke-linecap="round" class="Up"></path><path d="M1554 267L1553 -88" stroke-width="8" stroke="url(#SvgjsLinearGradient1339)" stroke-linecap="round" class="Up"></path><path d="M1278 401L1277 126" stroke-width="6" stroke="url(#SvgjsLinearGradient1335)" stroke-linecap="round" class="Up"></path><path d="M1830 231L1829 -280" stroke-width="10" stroke="url(#SvgjsLinearGradient1337)" stroke-linecap="round" class="Down"></path><path d="M1971 255L1970 982" stroke-width="10" stroke="url(#SvgjsLinearGradient1333)" stroke-linecap="round" class="Up"></path><path d="M2303 570L2302 146" stroke-width="6" stroke="url(#SvgjsLinearGradient1333)" stroke-linecap="round" class="Up"></path><path d="M330 350L329 617" stroke-width="8" stroke="url(#SvgjsLinearGradient1334)" stroke-linecap="round" class="Up"></path><path d="M1241 233L1240 -280" stroke-width="10" stroke="url(#SvgjsLinearGradient1339)" stroke-linecap="round" class="Up"></path><path d="M224 384L223 942" stroke-width="6" stroke="url(#SvgjsLinearGradient1337)" stroke-linecap="round" class="Down"></path><path d="M1047 678L1046 238" stroke-width="10" stroke="url(#SvgjsLinearGradient1334)" stroke-linecap="round" class="Up"></path><path d="M685 153L684 849" stroke-width="8" stroke="url(#SvgjsLinearGradient1339)" stroke-linecap="round" class="Up"></path></g><defs><mask id="SvgjsMask1332"><rect width="2500" height="1000" fill="#ffffff"></rect></mask><linearGradient x1="0%" y1="100%" x2="0%" y2="0%" id="SvgjsLinearGradient1333"><stop stop-color="rgba(124, 187, 236, 0)" offset="0"></stop><stop stop-color="rgba(124, 187, 236, 1)" offset="1"></stop></linearGradient><linearGradient x1="0%" y1="100%" x2="0%" y2="0%" id="SvgjsLinearGradient1334"><stop stop-color="rgba(104, 107, 205, 0)" offset="0"></stop><stop stop-color="rgba(104, 107, 205, 1)" offset="1"></stop></linearGradient><linearGradient x1="0%" y1="100%" x2="0%" y2="0%" id="SvgjsLinearGradient1335"><stop stop-color="rgba(247, 220, 223, 0)" offset="0"></stop><stop stop-color="rgba(247, 220, 223, 1)" offset="1"></stop></linearGradient><linearGradient x1="0%" y1="0%" x2="0%" y2="100%" id="SvgjsLinearGradient1336"><stop stop-color="rgba(104, 107, 205, 0)" offset="0"></stop><stop stop-color="rgba(104, 107, 205, 1)" offset="1"></stop></linearGradient><linearGradient x1="0%" y1="0%" x2="0%" y2="100%" id="SvgjsLinearGradient1337"><stop stop-color="rgba(124, 187, 236, 0)" offset="0"></stop><stop stop-color="rgba(124, 187, 236, 1)" offset="1"></stop></linearGradient><linearGradient x1="0%" y1="0%" x2="0%" y2="100%" id="SvgjsLinearGradient1338"><stop stop-color="rgba(209, 147, 204, 0)" offset="0"></stop><stop stop-color="rgba(209, 147, 204, 1)" offset="1"></stop></linearGradient><linearGradient x1="0%" y1="100%" x2="0%" y2="0%" id="SvgjsLinearGradient1339"><stop stop-color="rgba(209, 147, 204, 0)" offset="0"></stop><stop stop-color="rgba(209, 147, 204, 1)" offset="1"></stop></linearGradient><linearGradient x1="0%" y1="0%" x2="0%" y2="100%" id="SvgjsLinearGradient1340"><stop stop-color="rgba(247, 220, 223, 0)" offset="0"></stop><stop stop-color="rgba(247, 220, 223, 1)" offset="1"></stop></linearGradient></defs></svg>